<svg xmlns="http://www.w3.org/2000/svg" xmlns:xlink="http://www.w3.org/1999/xlink" width="549.627" height="400.64" viewBox="0 0 549.627 400.64">
  <defs>
    <clipPath id="clip-path">
      <rect id="長方形_104" data-name="長方形 104" width="44" height="44" transform="translate(453 273.66)" fill="none"/>
    </clipPath>
    <clipPath id="clip-path-3">
      <rect id="長方形_106" data-name="長方形 106" width="44" height="44" transform="translate(280 273.66)" fill="none"/>
    </clipPath>
  </defs>
  <g id="map" transform="translate(-246.982 -251.839)">
    <line id="線_66" data-name="線 66" x2="539.5" y2="17.99" transform="translate(247 264.17)" fill="none" stroke="#000" stroke-miterlimit="10" stroke-width="1"/>
    <line id="線_67" data-name="線 67" x2="13" y2="152" transform="translate(449.5 264.16)" fill="none" stroke="#000" stroke-miterlimit="10" stroke-width="1"/>
    <line id="線_68" data-name="線 68" x2="228" y2="384" transform="translate(277.5 264.16)" fill="none" stroke="#000" stroke-miterlimit="10" stroke-width="1"/>
    <line id="線_69" data-name="線 69" x1="195" y2="236" transform="translate(267.5 416.16)" fill="none" stroke="#000" stroke-miterlimit="10" stroke-width="1"/>
    <line id="線_70" data-name="線 70" x1="109" y2="3" transform="translate(462.5 413.16)" fill="none" stroke="#000" stroke-miterlimit="10" stroke-width="1"/>
    <line id="線_71" data-name="線 71" x2="145" y2="239" transform="translate(571.5 413.16)" fill="none" stroke="#000" stroke-miterlimit="10" stroke-width="1"/>
    <line id="線_72" data-name="線 72" y1="13" x2="58" transform="translate(738.5 369.16)" fill="none" stroke="#000" stroke-miterlimit="10" stroke-width="1"/>
    <line id="線_73" data-name="線 73" y1="31" x2="167" transform="translate(571.5 382.16)" fill="none" stroke="#000" stroke-miterlimit="10" stroke-width="1"/>
    <g id="logo01" transform="translate(0 11.44)">
      <g id="THE_PLACE_NAMBA" transform="translate(51.601 1.56)" style="isolation: isolate">
        <text id="THE" transform="translate(462.39 440.55)" font-size="19" font-family="Arial-BoldMT, Arial" font-weight="700" letter-spacing="0.16em" style="isolation: isolate"><tspan x="0" y="0">THE</tspan></text>
        <text id="PLACE" transform="translate(462.39 465.45)" font-size="19" font-family="Arial-BoldMT, Arial" font-weight="700" letter-spacing="0.16em" style="isolation: isolate"><tspan x="0" y="0">PLACE</tspan></text>
        <text id="NAMBA" transform="translate(462.39 488.97)" font-size="19" font-family="Arial-BoldMT, Arial" font-weight="700" letter-spacing="0.16em" style="isolation: isolate"><tspan x="0" y="0">NAMB</tspan><tspan y="0" letter-spacing="0.12em">A</tspan></text>
      </g>
      <rect id="_方形_29" width="16.22" height="65.71" transform="translate(388.28 422.66)"/>
      <rect id="_方形_30" width="16.22" height="48.71" transform="translate(410.22 439.66)"/>
      <rect id="_方形_31" width="16.22" height="62.26" transform="translate(432.17 426.1)"/>
    </g>
    <circle id="楕円形_44" data-name="楕円形 44" cx="6" cy="6" r="6" transform="translate(465 504.66)"/>
    <text id="なんばマルイ" transform="translate(478.72 388.94)" font-size="14" font-family="HiraginoSans-W3, Hiragino Sans"><tspan x="0" y="0">なんばマルイ</tspan></text>
    <text id="なんばCITY" transform="translate(574.72 581.94)" font-size="14" font-family="HiraginoSans-W3, Hiragino Sans"><tspan x="0" y="0">なん</tspan><tspan y="0" letter-spacing="0.25em">ば</tspan><tspan y="0" font-family="Helvetica">CITY</tspan></text>
    <text id="なんばグランド花月" transform="translate(645.72 528.94)" font-size="14" font-family="HiraginoSans-W3, Hiragino Sans"><tspan x="0" y="0">なんばグランド花月</tspan></text>
    <text id="ローソン" transform="translate(598.72 434.94)" font-size="14" font-family="HiraginoSans-W3, Hiragino Sans"><tspan x="0" y="0">ローソン</tspan></text>
    <text id="大阪難波" transform="translate(319.72 299.94)" font-size="16" font-family="HiraginoSans-W3, Hiragino Sans"><tspan x="0" y="0">大阪難波</tspan></text>
    <text id="なんば" transform="translate(493.77 299.57)" font-size="16" font-family="HiraginoSans-W3, Hiragino Sans"><tspan x="0" y="0">なんば</tspan></text>
    <g id="グループ_23" data-name="グループ 23" clip-path="url(#clip-path)">
      <g id="グループ_22" data-name="グループ 22" clip-path="url(#clip-path)">
        <path id="パス_28" data-name="パス 28" d="M472.5,292.84a.69.69,0,1,0,.69.69.691.691,0,0,0-.69-.69" fill="#231916"/>
        <path id="パス_29" data-name="パス 29" d="M475,279.99a11.6,11.6,0,0,0-10.65,16.18c.28.65,1.06,1.94,1.09,1.99,2.39,3.86,4.94,7.81,7.42,11.76a2.323,2.323,0,0,0,4.28,0c2.48-3.95,5.03-7.91,7.42-11.76.03-.05.81-1.34,1.09-1.99A11.6,11.6,0,0,0,475,279.99m3.4,17.78-1.85-1.85h-3.1l-1.85,1.85h-2.02l2.09-1.85h-.19a.675.675,0,0,1-.66-.54l-.4-1.91s-.01-.09-.01-.14v-6.14a.558.558,0,0,1,.39-.53,13.966,13.966,0,0,1,2.11-.47v-.6h-.72a.4.4,0,0,0-.33.18l-.15.23-1.07-.61.16-.26a1.658,1.658,0,0,1,1.4-.78h5.63a1.658,1.658,0,0,1,1.4.78l.16.26-.93.53-.11-.02-.12-.03-.06-.1a.4.4,0,0,0-.33-.18h-.72v.6a13.965,13.965,0,0,1,2.11.47.549.549,0,0,1,.39.53v6.14a.95.95,0,0,1-.01.14l-.4,1.91a.683.683,0,0,1-.66.54h-.19l2.09,1.85h-2.02Z" fill="#231916"/>
        <path id="パス_30" data-name="パス 30" d="M475.99,286.08v-.48H474v.48c.33-.02.67-.03.99-.03s.66.01.99.03" fill="#231916"/>
        <path id="パス_31" data-name="パス 31" d="M478.42,287.67a13.221,13.221,0,0,0-6.84,0v3.74h6.83v-3.74Z" fill="#231916"/>
        <path id="パス_32" data-name="パス 32" d="M477.5,292.84a.69.69,0,1,0,.69.69.691.691,0,0,0-.69-.69" fill="#231916"/>
      </g>
    </g>
    <text id="Osaka_Metoro" data-name="Osaka Metoro" transform="translate(571.42 267.83) rotate(1.91)" font-size="16" font-family="Avenir-Book, Avenir" letter-spacing="0.1em"><tspan x="0" y="0">Osaka Metoro</tspan></text>
    <text id="JR_Osaka" data-name="JR Osaka" transform="translate(305.99 346.15) rotate(59.3)" font-size="16" font-family="Avenir-Book, Avenir" letter-spacing="0.1em"><tspan x="0" y="0">JR Osaka</tspan></text>
    <g id="グループ_25" data-name="グループ 25" clip-path="url(#clip-path-3)">
      <g id="グループ_24" data-name="グループ 24" clip-path="url(#clip-path-3)">
        <path id="パス_33" data-name="パス 33" d="M299.5,292.84a.69.69,0,1,0,.69.69.691.691,0,0,0-.69-.69" fill="#231916"/>
        <path id="パス_34" data-name="パス 34" d="M302,279.99a11.6,11.6,0,0,0-10.65,16.18c.28.65,1.06,1.94,1.09,1.99,2.39,3.86,4.94,7.81,7.42,11.76a2.323,2.323,0,0,0,4.28,0c2.48-3.95,5.03-7.91,7.42-11.76.03-.05.81-1.34,1.09-1.99A11.6,11.6,0,0,0,302,279.99m3.4,17.78-1.85-1.85h-3.1l-1.85,1.85h-2.02l2.09-1.85h-.19a.675.675,0,0,1-.66-.54l-.4-1.91s-.01-.09-.01-.14v-6.14a.558.558,0,0,1,.39-.53,13.966,13.966,0,0,1,2.11-.47v-.6h-.72a.4.4,0,0,0-.33.18l-.15.23-1.07-.61.16-.26a1.658,1.658,0,0,1,1.4-.78h5.63a1.658,1.658,0,0,1,1.4.78l.16.26-.93.53-.11-.02-.12-.03-.06-.1a.4.4,0,0,0-.33-.18h-.72v.6a13.965,13.965,0,0,1,2.11.47.549.549,0,0,1,.39.53v6.14a.95.95,0,0,1-.01.14l-.4,1.91a.683.683,0,0,1-.66.54h-.19l2.09,1.85h-2.02Z" fill="#231916"/>
        <path id="パス_35" data-name="パス 35" d="M302.99,286.08v-.48H301v.48c.33-.02.67-.03.99-.03s.66.01.99.03" fill="#231916"/>
        <path id="パス_36" data-name="パス 36" d="M305.42,287.67a13.221,13.221,0,0,0-6.84,0v3.74h6.83v-3.74Z" fill="#231916"/>
        <path id="パス_37" data-name="パス 37" d="M304.5,292.84a.69.69,0,1,0,.69.69.691.691,0,0,0-.69-.69" fill="#231916"/>
      </g>
    </g>
  </g>
</svg>
